<svg width="35" height="35" viewBox="0 0 35 35" fill="none" xmlns="http://www.w3.org/2000/svg">
<path d="M17.4998 32.0832C9.44546 32.0832 2.9165 25.5542 2.9165 17.4998C2.9165 9.44547 9.44546 2.91651 17.4998 2.91651C19.7641 2.91481 21.9976 3.44118 24.0229 4.4538C26.0481 5.46642 27.8093 6.93739 29.1665 8.74984H25.2144C23.5304 7.26491 21.4536 6.29745 19.2334 5.96355C17.0131 5.62965 14.7437 5.9435 12.6974 6.86744C10.6511 7.79138 8.91484 9.28616 7.69702 11.1724C6.4792 13.0587 5.83152 15.2562 5.83171 17.5015C5.8319 19.7467 6.47994 21.9442 7.69808 23.8302C8.91621 25.7162 10.6527 27.2107 12.6992 28.1343C14.7456 29.0579 17.0151 29.3714 19.2353 29.0371C21.4555 28.7029 23.5321 27.7351 25.2159 26.2498H29.168C27.8106 28.0625 26.0492 29.5336 24.0237 30.5462C21.9981 31.5588 19.7644 32.0851 17.4998 32.0832V32.0832ZM27.7082 23.3332V18.9582H16.0415V16.0415H27.7082V11.6665L34.9998 17.4998L27.7082 23.3332Z" fill="#223E3F"/>
</svg>
