<svg width="40" height="42" viewBox="0 0 40 42" fill="none" xmlns="http://www.w3.org/2000/svg">
<path d="M18.5003 39V29.91C16.1152 29.6083 13.8756 28.5978 12.071 27.0094C10.2665 25.4209 8.98012 23.3275 8.37829 21H6.84829C5.88038 21.0002 4.93822 20.6882 4.16162 20.1105C3.38503 19.5328 2.81541 18.7201 2.53729 17.793L0.389295 10.635C0.227884 10.0973 0.194477 9.52925 0.291743 8.97631C0.389008 8.42337 0.614251 7.90085 0.949473 7.45048C1.2847 7.00012 1.72061 6.6344 2.22238 6.38255C2.72415 6.13069 3.27787 5.99969 3.83929 6H8.00029V1.5C8.00029 1.10218 8.15833 0.720644 8.43963 0.43934C8.72094 0.158035 9.10247 0 9.50029 0H30.5003C30.8981 0 31.2796 0.158035 31.561 0.43934C31.8423 0.720644 32.0003 1.10218 32.0003 1.5V6H36.1613C36.7227 5.99969 37.2764 6.13069 37.7782 6.38255C38.28 6.6344 38.7159 7.00012 39.0511 7.45048C39.3863 7.90085 39.6116 8.42337 39.7088 8.97631C39.8061 9.52925 39.7727 10.0973 39.6113 10.635L37.4603 17.79C37.1829 18.7172 36.6139 19.5302 35.8379 20.1084C35.0618 20.6867 34.1201 20.9993 33.1523 21H31.6223C31.0205 23.3275 29.7341 25.4209 27.9296 27.0094C26.125 28.5978 23.8854 29.6083 21.5003 29.91V39H27.5003C27.8981 39 28.2796 39.158 28.561 39.4393C28.8423 39.7206 29.0003 40.1022 29.0003 40.5C29.0003 40.8978 28.8423 41.2794 28.561 41.5607C28.2796 41.842 27.8981 42 27.5003 42H12.5003C12.1025 42 11.7209 41.842 11.4396 41.5607C11.1583 41.2794 11.0003 40.8978 11.0003 40.5C11.0003 40.1022 11.1583 39.7206 11.4396 39.4393C11.7209 39.158 12.1025 39 12.5003 39H18.5003ZM29.0003 18V3H11.0003V18C11.0003 20.3869 11.9485 22.6761 13.6363 24.364C15.3242 26.0518 17.6133 27 20.0003 27C22.3872 27 24.6764 26.0518 26.3643 24.364C28.0521 22.6761 29.0003 20.3869 29.0003 18ZM32.0003 18H33.1523C33.4748 18.0001 33.7888 17.8963 34.0476 17.7039C34.3065 17.5115 34.4964 17.2408 34.5893 16.932L36.7373 9.771C36.7639 9.68139 36.7693 9.5868 36.7529 9.49476C36.7365 9.40272 36.6988 9.31579 36.6428 9.2409C36.5869 9.166 36.5142 9.10522 36.4306 9.0634C36.347 9.02157 36.2548 8.99986 36.1613 9H32.0003V18ZM8.00029 18V9H3.83929C3.74581 8.99986 3.65358 9.02157 3.56998 9.0634C3.48637 9.10522 3.41369 9.166 3.35774 9.2409C3.30179 9.31579 3.26411 9.40272 3.24771 9.49476C3.23131 9.5868 3.23665 9.68139 3.26329 9.771L5.41129 16.932C5.50418 17.2408 5.69413 17.5115 5.95298 17.7039C6.21182 17.8963 6.52578 18.0001 6.84829 18H8.00029Z" fill="#223E3F"/>
</svg>
