<svg width="50" height="35" viewBox="0 0 50 35" fill="none" xmlns="http://www.w3.org/2000/svg">
<path d="M0 0.375V3.5H29.6875V26.9375H20.0688C19.3719 24.2516 16.9562 22.25 14.0625 22.25C11.1687 22.25 8.75313 24.2516 8.05625 26.9375H6.25V19.125H3.125V30.0625H8.05625C8.75313 32.7484 11.1687 34.75 14.0625 34.75C16.9562 34.75 19.3719 32.7484 20.0688 30.0625H33.0563C33.7531 32.7484 36.1688 34.75 39.0625 34.75C41.9562 34.75 44.3719 32.7484 45.0687 30.0625H50V17.3188L49.9016 17.0734L46.7766 7.69844L46.4375 6.625H32.8125V0.375H0ZM1.5625 6.625V9.75H15.625V6.625H1.5625ZM32.8125 9.75H44.1891L46.875 17.7578V26.9375H45.0687C44.3719 24.2516 41.9562 22.25 39.0625 22.25C36.1688 22.25 33.7531 24.2516 33.0563 26.9375H32.8125V9.75ZM3.125 12.875V16H12.5V12.875H3.125ZM14.0625 25.375C15.8078 25.375 17.1875 26.7547 17.1875 28.5C17.1875 30.2453 15.8078 31.625 14.0625 31.625C12.3172 31.625 10.9375 30.2453 10.9375 28.5C10.9375 26.7547 12.3172 25.375 14.0625 25.375ZM39.0625 25.375C40.8078 25.375 42.1875 26.7547 42.1875 28.5C42.1875 30.2453 40.8078 31.625 39.0625 31.625C37.3172 31.625 35.9375 30.2453 35.9375 28.5C35.9375 26.7547 37.3172 25.375 39.0625 25.375Z" fill="#223E3F"/>
</svg>
