<svg width="24" height="24" viewBox="0 0 24 24" fill="none" xmlns="http://www.w3.org/2000/svg">
<g clip-path="url(#clip0_60_71)">
<path d="M8.8877 21.3335C9.71612 21.3335 10.3877 20.6619 10.3877 19.8335C10.3877 19.0051 9.71612 18.3335 8.8877 18.3335C8.05927 18.3335 7.3877 19.0051 7.3877 19.8335C7.3877 20.6619 8.05927 21.3335 8.8877 21.3335Z" fill="white"/>
<path d="M18 21.3335C18.8284 21.3335 19.5 20.6619 19.5 19.8335C19.5 19.0051 18.8284 18.3335 18 18.3335C17.1716 18.3335 16.5 19.0051 16.5 19.8335C16.5 20.6619 17.1716 21.3335 18 21.3335Z" fill="white"/>
<path d="M22.0537 3.57967C21.9916 3.50319 21.9134 3.44141 21.8246 3.39876C21.7359 3.35611 21.6388 3.33365 21.5403 3.333H7.66032L8.09365 4.66633H20.667L18.887 12.6663H8.88698L5.84032 3.01967C5.80736 2.9173 5.75014 2.82443 5.67352 2.74898C5.5969 2.67352 5.50317 2.61772 5.40032 2.58633L2.66698 1.74633C2.58294 1.72051 2.49463 1.71149 2.4071 1.71979C2.31956 1.72809 2.23453 1.75355 2.15683 1.79472C1.99993 1.87786 1.88248 2.01993 1.83032 2.18967C1.77816 2.3594 1.79556 2.54291 1.87871 2.69982C1.96185 2.85672 2.10391 2.97417 2.27365 3.02633L4.66698 3.75967L7.72698 13.4263L6.63365 14.3197L6.54698 14.4063C6.27654 14.718 6.12325 15.1142 6.11352 15.5267C6.10378 15.9393 6.23821 16.3423 6.49365 16.6663C6.67536 16.8873 6.90626 17.0627 7.16788 17.1784C7.4295 17.2942 7.71458 17.3471 8.00032 17.333H19.127C19.3038 17.333 19.4734 17.2628 19.5984 17.1377C19.7234 17.0127 19.7936 16.8431 19.7936 16.6663C19.7936 16.4895 19.7234 16.32 19.5984 16.1949C19.4734 16.0699 19.3038 15.9997 19.127 15.9997H7.89365C7.81688 15.997 7.74209 15.9747 7.67649 15.9347C7.61089 15.8947 7.55671 15.8385 7.51918 15.7715C7.48165 15.7045 7.46204 15.6289 7.46223 15.5521C7.46243 15.4753 7.48244 15.3998 7.52032 15.333L9.12698 13.9997H19.4203C19.5744 14.0034 19.7251 13.9537 19.8466 13.8589C19.9682 13.7641 20.0531 13.6301 20.087 13.4797L22.2003 4.14633C22.2206 4.04694 22.2179 3.94424 22.1925 3.84604C22.1671 3.74784 22.1196 3.65674 22.0537 3.57967Z" fill="white"/>
</g>
<defs>
<clipPath id="clip0_60_71">
<rect width="24" height="24" fill="white"/>
</clipPath>
</defs>
</svg>
