<svg width="41" height="41" viewBox="0 0 41 41" fill="none" xmlns="http://www.w3.org/2000/svg">
<g clip-path="url(#clip0_11_12)">
<path d="M14.8326 35.6182C16.2152 35.6182 17.336 34.4974 17.336 33.1148C17.336 31.7322 16.2152 30.6113 14.8326 30.6113C13.4499 30.6113 12.3291 31.7322 12.3291 33.1148C12.3291 34.4974 13.4499 35.6182 14.8326 35.6182Z" fill="#223E3F"/>
<path d="M30.0415 35.6182C31.4242 35.6182 32.545 34.4974 32.545 33.1148C32.545 31.7322 31.4242 30.6113 30.0415 30.6113C28.6589 30.6113 27.5381 31.7322 27.5381 33.1148C27.5381 34.4974 28.6589 35.6182 30.0415 35.6182Z" fill="#223E3F"/>
<path d="M36.8073 5.98846C36.7037 5.86083 36.5732 5.75772 36.4251 5.68653C36.2769 5.61535 36.1149 5.57787 35.9505 5.57679H12.7852L13.5085 7.80208H34.493L31.5222 21.1538H14.8325L9.74772 5.05384C9.69272 4.883 9.59721 4.72801 9.46934 4.60207C9.34147 4.47614 9.18503 4.38301 9.01337 4.33062L4.45153 2.92869C4.31126 2.88558 4.16387 2.87053 4.01778 2.88439C3.87169 2.89824 3.72976 2.94074 3.6001 3.00945C3.33823 3.14821 3.14221 3.38531 3.05515 3.6686C2.9681 3.95189 2.99715 4.25815 3.13591 4.52002C3.27467 4.78189 3.51178 4.97792 3.79506 5.06497L7.78946 6.28888L12.8965 22.4222L11.0718 23.9132L10.9271 24.0578C10.4758 24.578 10.2199 25.2393 10.2037 25.9277C10.1874 26.6162 10.4118 27.2888 10.8381 27.8297C11.1414 28.1985 11.5267 28.4912 11.9634 28.6844C12.4 28.8776 12.8758 28.9659 13.3527 28.9423H31.9227C32.2178 28.9423 32.5008 28.8251 32.7095 28.6165C32.9182 28.4078 33.0354 28.1248 33.0354 27.8297C33.0354 27.5346 32.9182 27.2516 32.7095 27.0429C32.5008 26.8343 32.2178 26.7171 31.9227 26.7171H13.1747C13.0465 26.7127 12.9217 26.6753 12.8122 26.6086C12.7028 26.5419 12.6123 26.4481 12.5497 26.3363C12.487 26.2244 12.4543 26.0983 12.4546 25.9701C12.455 25.8419 12.4884 25.7159 12.5516 25.6044L15.2331 23.3791H32.4123C32.6695 23.3854 32.9209 23.3024 33.1238 23.1441C33.3267 22.9859 33.4684 22.7622 33.525 22.5113L37.052 6.93421C37.0859 6.76834 37.0814 6.59693 37.039 6.43304C36.9966 6.26915 36.9173 6.1171 36.8073 5.98846Z" fill="#223E3F"/>
</g>
<defs>
<clipPath id="clip0_11_12">
<rect width="40.0552" height="40.0552" fill="white" transform="translate(0 0.0136719)"/>
</clipPath>
</defs>
</svg>
