<svg width="35" height="36" viewBox="0 0 35 36" fill="none" xmlns="http://www.w3.org/2000/svg">
<path d="M17.5412 3.00488C13.6975 3.0539 10.0251 4.60258 7.307 7.32068C4.58891 10.0388 3.04023 13.7112 2.99121 17.5549C3.00918 19.794 3.5437 21.9987 4.55317 23.9975C5.56263 25.9962 7.0198 27.735 8.8112 29.0785V29.1949H8.9567C11.4203 31.0827 14.4375 32.1058 17.5412 32.1058C20.6449 32.1058 23.6621 31.0827 26.1257 29.1949H26.2712V29.0785C28.0626 27.735 29.5198 25.9962 30.5292 23.9975C31.5387 21.9987 32.0732 19.794 32.0912 17.5549C32.0422 13.7112 30.4935 10.0388 27.7754 7.32068C25.0573 4.60258 21.3849 3.0539 17.5412 3.00488ZM11.823 27.638C12.0355 26.6653 12.574 25.7944 13.3495 25.1698C14.1249 24.5452 15.0905 24.2045 16.0862 24.2042H18.9962C19.9919 24.2045 20.9575 24.5452 21.7329 25.1698C22.5083 25.7944 23.0469 26.6653 23.2593 27.638C21.5262 28.6577 19.552 29.1954 17.5412 29.1954C15.5304 29.1954 13.5561 28.6577 11.823 27.638ZM25.7037 25.7611C25.1503 24.4384 24.2184 23.3088 23.025 22.514C21.8316 21.7193 20.43 21.2949 18.9962 21.2942H16.0862C14.6524 21.2949 13.2508 21.7193 12.0574 22.514C10.864 23.3088 9.9321 24.4384 9.37865 25.7611C8.28837 24.6887 7.42008 23.412 6.8234 22.004C6.22673 20.5959 5.91336 19.0841 5.90121 17.5549C5.93895 14.4795 7.17742 11.5407 9.35221 9.36588C11.527 7.19109 14.4658 5.95262 17.5412 5.91488C20.6166 5.95262 23.5554 7.19109 25.7302 9.36588C27.905 11.5407 29.1434 14.4795 29.1812 17.5549C29.169 19.0841 28.8557 20.5959 28.259 22.004C27.6623 23.412 26.794 24.6887 25.7037 25.7611Z" fill="#223E3F"/>
<path d="M17.5413 8.82479C16.7721 8.80687 16.0072 8.94516 15.293 9.2313C14.5788 9.51744 13.9301 9.94548 13.386 10.4895C12.842 11.0336 12.4139 11.6823 12.1278 12.3965C11.8416 13.1108 11.7034 13.8756 11.7213 14.6448C11.7034 15.414 11.8416 16.1788 12.1278 16.893C12.4139 17.6072 12.842 18.256 13.386 18.8C13.9301 19.3441 14.5788 19.7721 15.293 20.0583C16.0072 20.3444 16.7721 20.4827 17.5413 20.4648C18.3105 20.4827 19.0753 20.3444 19.7895 20.0583C20.5037 19.7721 21.1525 19.3441 21.6965 18.8C22.2406 18.256 22.6686 17.6072 22.9547 16.893C23.2409 16.1788 23.3792 15.414 23.3613 14.6448C23.3792 13.8756 23.2409 13.1108 22.9547 12.3965C22.6686 11.6823 22.2406 11.0336 21.6965 10.4895C21.1525 9.94548 20.5037 9.51744 19.7895 9.2313C19.0753 8.94516 18.3105 8.80687 17.5413 8.82479ZM17.5413 17.5548C17.1542 17.5735 16.7674 17.511 16.4059 17.3714C16.0444 17.2318 15.716 17.0181 15.442 16.7441C15.1679 16.47 14.9543 16.1417 14.8146 15.7801C14.675 15.4186 14.6126 15.0319 14.6313 14.6448C14.6126 14.2577 14.675 13.8709 14.8146 13.5094C14.9543 13.1479 15.1679 12.8195 15.442 12.5455C15.716 12.2715 16.0444 12.0578 16.4059 11.9181C16.7674 11.7785 17.1542 11.7161 17.5413 11.7348C17.9284 11.7161 18.3151 11.7785 18.6766 11.9181C19.0382 12.0578 19.3665 12.2715 19.6405 12.5455C19.9146 12.8195 20.1283 13.1479 20.2679 13.5094C20.4075 13.8709 20.47 14.2577 20.4513 14.6448C20.47 15.0319 20.4075 15.4186 20.2679 15.7801C20.1283 16.1417 19.9146 16.47 19.6405 16.7441C19.3665 17.0181 19.0382 17.2318 18.6766 17.3714C18.3151 17.511 17.9284 17.5735 17.5413 17.5548Z" fill="#223E3F"/>
</svg>
