<svg width="177" height="43" viewBox="0 0 177 43" fill="none" xmlns="http://www.w3.org/2000/svg">
<path d="M10.868 39L0.792 8.288H5.94L10.824 23.468L13.772 34.16H13.948L16.94 23.468L21.824 8.288H26.84L16.632 39H10.868ZM38.6189 39.528C36.9763 39.528 35.5096 39.2493 34.2189 38.692C32.9283 38.1347 31.8283 37.3427 30.9189 36.316C30.0096 35.26 29.3056 33.9987 28.8069 32.532C28.3376 31.036 28.1029 29.3787 28.1029 27.56C28.1029 25.7413 28.3376 24.0987 28.8069 22.632C29.3056 21.136 30.0096 19.8747 30.9189 18.848C31.8283 17.792 32.9283 16.9853 34.2189 16.428C35.5096 15.8707 36.9763 15.592 38.6189 15.592C40.2909 15.592 41.7576 15.8853 43.0189 16.472C44.3096 17.0587 45.3803 17.88 46.2309 18.936C47.0816 19.9627 47.7123 21.1653 48.1229 22.544C48.5629 23.9227 48.7829 25.404 48.7829 26.988V28.792H33.0749V29.54C33.0749 31.3 33.5883 32.752 34.6149 33.896C35.6709 35.0107 37.1669 35.568 39.1029 35.568C40.5109 35.568 41.6989 35.26 42.6669 34.644C43.6349 34.028 44.4563 33.192 45.1309 32.136L47.9469 34.908C47.0963 36.316 45.8643 37.4453 44.2509 38.296C42.6376 39.1173 40.7603 39.528 38.6189 39.528ZM38.6189 19.332C37.7976 19.332 37.0349 19.4787 36.3309 19.772C35.6563 20.0653 35.0696 20.476 34.5709 21.004C34.1016 21.532 33.7349 22.1627 33.4709 22.896C33.2069 23.6293 33.0749 24.436 33.0749 25.316V25.624H43.7229V25.184C43.7229 23.424 43.2683 22.016 42.3589 20.96C41.4496 19.8747 40.2029 19.332 38.6189 19.332ZM54.0922 39V16.12H58.8882V19.904H59.1082C59.6068 18.672 60.3548 17.6453 61.3522 16.824C62.3788 16.0027 63.7722 15.592 65.5322 15.592C67.8788 15.592 69.6975 16.3693 70.9882 17.924C72.3082 19.4493 72.9682 21.6347 72.9682 24.48V39H68.1722V25.096C68.1722 21.5173 66.7348 19.728 63.8602 19.728C63.2442 19.728 62.6282 19.816 62.0122 19.992C61.4255 20.1387 60.8975 20.3733 60.4282 20.696C59.9588 21.0187 59.5775 21.4293 59.2842 21.928C59.0202 22.4267 58.8882 23.0133 58.8882 23.688V39H54.0922ZM85.9516 39C84.2796 39 83.0183 38.5747 82.1676 37.724C81.3169 36.844 80.8916 35.612 80.8916 34.028V20.036H77.3276V16.12H79.2636C80.0556 16.12 80.5983 15.944 80.8916 15.592C81.2143 15.24 81.3756 14.668 81.3756 13.876V9.872H85.6876V16.12H90.4836V20.036H85.6876V35.084H90.1316V39H85.9516ZM109.546 35.216H109.37C109.165 35.7733 108.886 36.316 108.534 36.844C108.211 37.372 107.786 37.8413 107.258 38.252C106.759 38.6333 106.143 38.9413 105.41 39.176C104.706 39.4107 103.885 39.528 102.946 39.528C100.57 39.528 98.7219 38.7653 97.4019 37.24C96.1112 35.7147 95.4659 33.5293 95.4659 30.684V16.12H100.262V30.068C100.262 33.6173 101.729 35.392 104.662 35.392C105.278 35.392 105.879 35.3187 106.466 35.172C107.053 34.996 107.566 34.7467 108.006 34.424C108.475 34.1013 108.842 33.6907 109.106 33.192C109.399 32.6933 109.546 32.1067 109.546 31.432V16.12H114.342V39H109.546V35.216ZM121.209 39V16.12H126.005V20.52H126.225C126.548 19.3467 127.223 18.32 128.249 17.44C129.276 16.56 130.699 16.12 132.517 16.12H133.793V20.74H131.901C129.995 20.74 128.528 21.048 127.501 21.664C126.504 22.28 126.005 23.1893 126.005 24.392V39H121.209ZM146.814 39.528C145.172 39.528 143.705 39.2493 142.414 38.692C141.124 38.1347 140.024 37.3427 139.114 36.316C138.205 35.26 137.501 33.9987 137.002 32.532C136.533 31.036 136.298 29.3787 136.298 27.56C136.298 25.7413 136.533 24.0987 137.002 22.632C137.501 21.136 138.205 19.8747 139.114 18.848C140.024 17.792 141.124 16.9853 142.414 16.428C143.705 15.8707 145.172 15.592 146.814 15.592C148.486 15.592 149.953 15.8853 151.214 16.472C152.505 17.0587 153.576 17.88 154.426 18.936C155.277 19.9627 155.908 21.1653 156.318 22.544C156.758 23.9227 156.978 25.404 156.978 26.988V28.792H141.27V29.54C141.27 31.3 141.784 32.752 142.81 33.896C143.866 35.0107 145.362 35.568 147.298 35.568C148.706 35.568 149.894 35.26 150.862 34.644C151.83 34.028 152.652 33.192 153.326 32.136L156.142 34.908C155.292 36.316 154.06 37.4453 152.446 38.296C150.833 39.1173 148.956 39.528 146.814 39.528ZM146.814 19.332C145.993 19.332 145.23 19.4787 144.526 19.772C143.852 20.0653 143.265 20.476 142.766 21.004C142.297 21.532 141.93 22.1627 141.666 22.896C141.402 23.6293 141.27 24.436 141.27 25.316V25.624H151.918V25.184C151.918 23.424 151.464 22.016 150.554 20.96C149.645 19.8747 148.398 19.332 146.814 19.332Z" fill="#223E3F"/>
<path d="M167.7 38.7513C166.22 38.7513 165.12 38.3712 164.4 37.6112C163.68 36.8112 163.32 35.8312 163.32 34.6712V33.7712C163.32 32.6112 163.68 31.6512 164.4 30.8912C165.12 30.0912 166.22 29.6912 167.7 29.6912C169.18 29.6912 170.28 30.0912 171 30.8912C171.72 31.6512 172.08 32.6112 172.08 33.7712V34.6712C172.08 35.8312 171.72 36.8112 171 37.6112C170.28 38.3712 169.18 38.7513 167.7 38.7513Z" fill="#169FA4"/>
</svg>
